<?xml version="1.0" encoding="UTF-8" standalone="no"?>
<!-- Generator: Adobe Illustrator 19.0.0, SVG Export Plug-In . SVG Version: 6.00 Build 0)  -->

<svg
   version="1.1"
   id="layer"
   x="0px"
   y="0px"
   viewBox="-153 -46 652 652"
   style="enable-background:new -153 -46 652 652;"
   xml:space="preserve"
   sodipodi:docname="american-express-safekey-seeklogo.com.svg"
   inkscape:version="1.2 (dc2aedaf03, 2022-05-15)"
   xmlns:inkscape="http://www.inkscape.org/namespaces/inkscape"
   xmlns:sodipodi="http://sodipodi.sourceforge.net/DTD/sodipodi-0.dtd"
   xmlns="http://www.w3.org/2000/svg"
   xmlns:svg="http://www.w3.org/2000/svg"><defs
   id="defs33" /><sodipodi:namedview
   id="namedview31"
   pagecolor="#ffffff"
   bordercolor="#666666"
   borderopacity="1.0"
   inkscape:showpageshadow="2"
   inkscape:pageopacity="0.0"
   inkscape:pagecheckerboard="0"
   inkscape:deskcolor="#d1d1d1"
   showgrid="false"
   inkscape:zoom="0.36196319"
   inkscape:cx="326"
   inkscape:cy="326"
   inkscape:window-width="1366"
   inkscape:window-height="736"
   inkscape:window-x="1920"
   inkscape:window-y="0"
   inkscape:window-maximized="1"
   inkscape:current-layer="g28" />
<style
   type="text/css"
   id="style2">
	.st0{fill:#474C55;}
	.st1{fill:#878A8F;}
	.st2{fill:#FFFFFF;}
	.st3{fill:#0079C2;}
	.st4{fill:#0D79BF;}
</style>
<g
   id="g28">
	<path
   class="st0"
   d="m -94.929942,494.3667 14.570255,-6.3838 c 6.556611,10.59951 16.610076,15.77882 30.160405,15.77882 13.258925,0 22.292478,-3.49302 22.292478,-11.804 0,-7.82918 -6.848013,-11.44265 -24.769413,-15.89926 -21.126859,-5.1793 -38.174056,-9.87681 -38.174056,-27.10102 0,-15.41746 15.153071,-25.53517 37.44554,-25.53517 21.563962,0 34.240078,8.79277 40.942394,19.51272 l -13.404632,7.70874 c -6.556609,-9.03367 -15.735861,-13.24938 -27.683469,-13.24938 -12.093297,0 -19.087021,3.61346 -19.087021,10.23816 0,8.43142 7.867939,11.20175 25.643639,15.65836 20.689749,5.05885 37.1541253,10.59951 37.1541253,27.70326 0,14.81521 -15.1530593,26.37831 -41.2337993,26.37831 -21.563965,0 -37.008418,-9.27456 -43.856446,-23.00574"
   id="path4"
   style="stroke-width:1.32475" />
	<path
   class="st0"
   d="m -1.3889528,500.0278 c 0,-14.09253 14.4245448,-23.48755 51.1415638,-26.86012 v -1.92718 c 0,-6.50425 -4.079664,-9.27457 -12.821821,-9.27457 -10.92768,0 -19.81553,4.45662 -26.372141,8.79277 l -8.8878486,-9.39502 c 8.4507416,-6.38379 21.5639636,-11.80399 37.8826396,-11.80399 20.98116,0 28.266279,8.31097 28.266279,23.48754 v 26.73967 c 0,7.82919 0.582807,12.64714 2.18554,15.89926 H 51.646748 c -1.019917,-2.64988 -1.74843,-4.69751 -1.74843,-8.31097 -8.013643,6.74513 -17.338596,9.27457 -28.994794,9.27457 -12.8218204,0 -22.2924768,-5.902 -22.2924768,-16.62196 m 51.1415638,-2.52943 v -14.33343 c -21.709665,2.40898 -33.22016,6.86559 -33.22016,13.97209 0,5.17931 4.225371,7.82918 10.927684,7.82918 9.324959,0 16.610078,-2.89078 22.292476,-7.46784"
   id="path6"
   style="stroke-width:1.32475" />
	<path
   class="st0"
   d="M 92.880543,515.68616 V 462.68863 H 79.33021 v -12.0449 h 13.550333 v -6.62469 c 0,-10.84041 5.536691,-19.27183 25.352227,-19.27183 3.35116,0 9.47066,0.48179 10.78199,0.60225 V 437.033 c -1.16562,-0.24091 -4.07968,-0.4818 -6.26522,-0.4818 -6.5566,0 -11.80189,1.44539 -11.80189,8.43143 v 5.78154 h 17.19289 v 12.0449 h -17.19289 v 52.99754 H 92.880543 Z"
   id="path8"
   style="stroke-width:1.32475" />
	<path
   class="st0"
   d="m 134.69716,483.16494 c 0,-24.69203 21.12686,-33.7257 37.29983,-33.7257 17.62999,0 34.38577,8.67232 34.38577,35.1711 v 3.49302 h -53.6185 c 0.7285,11.80399 9.47066,16.86285 20.98116,16.86285 10.19917,0 16.17297,-2.77033 22.00107,-7.58829 l 9.61635,7.82918 c -8.15933,7.46783 -18.94132,11.804 -32.92875,11.804 -19.52413,0 -37.73693,-9.87681 -37.73693,-33.84616 m 55.07553,-6.26334 c -1.01993,-9.87681 -6.99373,-15.17657 -17.92141,-15.17657 -8.88785,0 -17.04718,4.21571 -18.79562,15.17657 z"
   id="path10"
   style="stroke-width:1.32475" />
	<polygon
   class="st1"
   points="314.7,277.7 301.7,292.1 301.7,317.5 292.7,317.5 292.7,242.3 301.7,242.3 301.7,281.1 335.6,242.3 346.4,242.3 320.6,270.9 349.9,317.5 339.7,317.5 "
   id="polygon12"
   transform="matrix(1.4570247,0,0,1.2044894,-203.76968,133.26076)" />
	<path
   class="st1"
   d="m 309.83151,483.2854 c 0,-23.48754 18.94133,-33.60526 35.26001,-33.60526 18.50421,0 32.49164,10.71995 32.49164,34.08704 v 2.16809 h -55.07552 c 0.4371,14.57432 10.63627,22.4035 23.45809,22.4035 11.21908,0 17.63,-3.73392 23.4581,-10.47906 l 7.43083,5.42021 c -7.28514,8.55187 -17.1929,13.73118 -31.76314,13.73118 -18.50422,0 -35.26001,-11.20176 -35.26001,-33.7257 m 55.65835,-5.4202 c -1.01991,-11.44265 -7.72222,-19.27183 -20.54405,-19.27183 -10.49057,0 -20.39834,6.02244 -22.14677,19.27183 z"
   id="path14"
   style="stroke-width:1.32475" />
	<path
   class="st1"
   d="m 383.41126,538.9328 2.91405,-8.43142 c 2.18555,0.4818 6.1195,1.08405 11.5105,1.08405 8.01363,0 11.8019,-2.77033 14.86165,-9.15413 l 2.91405,-6.38379 -30.16041,-64.92199 h 13.40462 l 22.87529,52.27485 h 0.29141 l 22.87529,-52.27485 h 12.8218 l -33.36585,71.90802 c -5.39099,11.3222 -11.36481,17.4651 -26.51785,17.4651 -6.84801,0 -11.0734,-0.72269 -14.42455,-1.56584"
   id="path16"
   style="stroke-width:1.32475" />
	<path
   class="st1"
   d="m 462.2363,460.27965 c 0,-5.54066 5.09958,-9.75638 11.80189,-9.75638 6.55662,0 11.51051,4.21572 11.51051,9.63592 0,5.54066 -5.0996,9.75637 -11.8019,9.75637 -6.55661,0 -11.5105,-4.21571 -11.5105,-9.63591 m 20.83545,0 c 0,-4.45662 -3.93396,-7.94964 -9.32495,-7.94964 -5.24529,0 -9.17926,3.37257 -9.17926,7.82918 0,4.45662 3.93397,7.82918 9.32496,7.82918 5.24529,0 9.17925,-3.25212 9.17925,-7.70872 m -13.84173,-5.54066 h 4.95388 c 3.05975,0 4.95389,1.08404 4.95389,3.49303 0,1.68627 -0.87423,2.52942 -2.33125,3.01123 l 2.47694,3.9748 h -3.20545 l -2.33123,-3.73391 h -1.45703 v 3.73391 h -3.05975 z m 4.66248,4.93841 c 1.31132,0 2.18553,-0.36135 2.18553,-1.32495 0,-0.96358 -0.72851,-1.32492 -2.18553,-1.32492 h -1.60273 v 2.64987 z"
   id="path18"
   style="stroke-width:1.32475" />
	<polygon
   class="st2"
   points="-50.7,203.4 25.5,203.4 25.5,279.1 25.5,355.8 -50.7,355.8 -126.9,355.8 -126.9,279.6 -126.9,203.4 "
   id="polygon20"
   transform="matrix(1.896802,0,0,1.5680434,280.4473,-203.26394)" />
	<path
   class="st3"
   d="m 223.54324,285.3384 -7.01818,-7.213 v 7.213 h -20.67514 v -10.34907 c -2.65551,0.62721 -5.69042,1.09763 -9.10465,1.09763 h -3.22456 v 9.09464 h -30.34883 l -5.12137,-5.95857 -4.93168,5.95857 H 93.232933 v -40.76913 h 43.057427 6.82847 l 5.12137,5.95856 5.12134,-5.95856 h 175.4542 V 115.3625 H 39.743126 v 94.39621 l 9.673692,-18.65972 h 19.726739 l 5.690396,10.5059 v -10.5059 h 24.089392 l 3.603925,8.93784 3.60392,-8.93784 H 212.3521 v 4.07692 c 4.17296,-2.82248 9.29434,-4.07692 15.17442,-4.07692 h 32.24562 l 5.6904,10.5059 v -10.5059 h 18.96804 l 6.25946,8.31063 v -8.31063 h 21.62354 v 40.76913 h -20.10613 l -6.06976,-7.99703 v 7.99703 h -29.40043 l -2.84518,-6.11536 h -6.82849 l -2.84522,6.11536 h -17.26089 c -4.74199,0 -10.24273,-0.78401 -14.60538,-3.7633 v 3.7633 h -29.02107 l -7.01817,-7.213 v 7.213 H 65.729307 l -2.845206,-6.11536 h -6.828486 l -2.845206,6.11536 H 39.55344 v 122.4642 h 289.2623 v -71.50278 c -3.03489,1.56804 -6.82849,2.50886 -11.00144,2.50886 z"
   id="path22"
   style="stroke-width:1.7246" />
	<path
   class="st4"
   d="m 328.81574,250.99826 v -0.15682 0 h -17.45057 c -7.39753,0 -11.76018,3.76331 -11.76018,8.78106 0,5.33134 4.17297,8.31062 10.62209,8.31062 h 7.77689 c 1.89681,0 3.41425,0.94084 3.41425,2.50887 0,1.56804 -1.32775,2.50888 -3.41425,2.50888 H 300.5534 v 5.95855 h 17.2609 c 5.69039,0 9.48401,-2.19525 11.00144,-5.64494 0.37936,-0.94082 0.75873,-2.03848 0.75873,-3.2929 0,-1.25444 -0.18969,-2.50887 -0.75873,-3.4497 -1.51743,-2.97926 -4.9317,-4.70413 -9.86337,-4.70413 h -7.96657 c -1.89679,0 -3.22457,-1.09762 -3.22457,-2.50886 0,-1.56806 1.32778,-2.50888 3.22457,-2.50888 h 14.60539 z m -52.35172,8.46742 c 0,-1.56803 1.32776,-2.50887 3.22456,-2.50887 h 14.60537 l 3.22456,-5.95855 h -17.64027 c -7.39752,0 -11.76015,3.7633 -11.76015,8.78103 0,5.33137 4.17296,8.31063 10.62209,8.31063 h 7.77687 c 1.89681,0 3.41425,0.94083 3.41425,2.50887 0,1.56805 -1.32776,2.50887 -3.41425,2.50887 h -17.45057 v 5.95857 h 17.2609 c 7.39752,0 11.76017,-3.76329 11.76017,-8.93785 0,-5.17454 -3.9833,-8.15381 -10.62209,-8.15381 h -7.96657 c -1.70711,0 -3.03487,-0.94085 -3.03487,-2.50889 m -39.07413,19.60055 h 27.31393 v -5.95857 h -19.15768 v -5.17454 h 18.58864 v -5.80177 h -18.58864 v -5.01773 h 19.15768 v -5.95857 h -27.31393 z m -1.89679,0 -11.38083,-10.34909 c 5.69041,-0.94082 9.29433,-4.39051 9.29433,-8.93785 0,-5.33133 -4.55233,-8.93785 -11.76016,-8.93785 h -18.58867 v 28.22479 h 8.15626 v -10.03548 h 3.79359 l 10.05304,10.03548 z M 220.88771,263.0722 h -9.48401 v -6.27219 h 9.48401 c 2.84519,0 4.36265,1.41125 4.36265,3.1361 -0.1897,1.88164 -1.51746,3.13609 -4.36265,3.13609 m -22.19257,-2.82249 c 0,-5.64496 -4.55234,-9.40827 -11.76018,-9.40827 h -18.77835 v 28.22479 h 8.15625 v -9.25145 h 10.24273 c 7.58721,0 12.13955,-4.07692 12.13955,-9.56507 m -8.34594,0.1568 c 0,1.88166 -1.51745,3.4497 -4.36265,3.4497 h -9.86338 v -6.8994 h 9.86338 c 3.03488,0 4.36265,1.41124 4.36265,3.4497 m -23.71002,18.65972 -13.65699,-14.26919 13.65699,-13.9556 h -10.05306 l -8.34592,8.93785 -8.34593,-8.93785 h -10.24274 l 13.65698,14.1124 -13.65698,14.11239 h 10.05305 l 8.34593,-9.09465 8.34594,9.09465 z m -65.62936,0 h 27.31396 v -5.95857 h -19.1577 v -5.17454 h 18.58866 v -5.80177 h -18.58866 v -5.01773 h 19.1577 v -5.95857 h -27.31396 z"
   id="path24"
   style="stroke-width:1.7246" />
	<path
   class="st4"
   d="m 304.53667,225.90956 v -28.22479 h -7.96657 v 14.89643 l 0.18968,3.4497 h -0.18968 l -2.27615,-3.1361 -11.94985,-15.21003 h -10.05305 v 28.22479 h 7.96655 v -15.68045 l -0.18965,-3.29288 h 0.18965 l 2.27617,3.13608 12.51889,15.83725 z m -43.24707,0 h 9.29431 l -14.60536,-28.22479 h -10.81177 l -14.60539,28.22479 h 8.72529 l 2.84522,-5.95858 h 16.12281 z m -5.69042,-11.44672 h -10.81177 l 3.22456,-6.58579 2.08649,-4.39052 h 0.18968 l 2.08648,4.39052 z m -28.45201,-10.66269 h 8.91495 v -6.11538 h -9.484 c -10.62209,0 -16.3125,5.80176 -16.3125,13.79879 v 0.47042 c 0,8.46741 5.88009,13.79878 15.74345,13.79878 h 0.56905 l 3.41424,-5.95858 h -2.46584 c -5.50073,0 -8.91497,-2.82247 -8.91497,-7.8402 v -0.47042 c -0.18968,-4.39052 2.65553,-7.68341 8.53562,-7.68341 m -29.96949,22.10941 h 8.15624 v -14.1124 -14.11239 h -8.15624 v 14.11239 z m -2.08647,0 -11.38083,-10.34909 c 5.69042,-0.94083 9.29433,-4.39052 9.29433,-8.93786 0,-5.33133 -4.55232,-8.93784 -11.76015,-8.93784 h -18.58867 v 28.22479 h 8.15625 v -10.03548 h 3.7936 l 10.05305,10.03548 z m -14.6054,-15.99404 h -9.48399 v -6.27218 h 9.48399 c 2.84522,0 4.36266,1.41125 4.36266,3.13609 -0.18968,1.72486 -1.51744,3.13609 -4.36266,3.13609 m -50.64459,15.99404 h 27.31394 v -5.95858 h -18.96802 v -5.17453 h 18.58866 v -5.80177 h -18.58866 v -5.01774 h 18.96802 v -5.95857 h -27.31394 z m -14.22601,0 h 7.96655 v -28.22479 h -13.27761 l -6.6388,16.30767 -1.13808,3.13607 h -0.18969 l -1.13807,-3.13607 -6.638819,-16.30767 H 81.28308 v 28.22479 h 7.966574 v -18.50292 l -0.189688,-4.2337 h 0.189688 l 1.707117,4.2337 7.776887,18.50292 h 7.397532 l 7.77688,-18.50292 1.70714,-4.2337 h 0.18967 l -0.18967,4.2337 z m -45.143894,0 H 79.76565 L 65.160261,197.68477 H 54.348499 l -14.605373,28.22479 h 8.725289 l 2.845191,-5.95858 h 16.122818 z m -5.500725,-11.44672 h -10.81178 l 3.224565,-6.58579 2.08649,-4.39052 h 0.189672 l 2.086489,4.39052 z"
   id="path26"
   style="stroke-width:1.7246" />
</g>
</svg>
