<svg width="100" height="100" class="sv svg-4" version="1.1" id="Layer_1" x="0px" y="0px" viewBox="0 0 693.79 603.03" style="enable-background:new 0 0 693.79 603.03;" xml:space="preserve" xmlns="http://www.w3.org/2000/svg" xmlns:xlink="http://www.w3.org/1999/xlink">

<g>
	<path class="st0" d="M90.96,245.73L323.5,430.07c13.56,10.62,33.25,10.61,46.81,0l232.53-182.01"></path>
	<path class="st0" d="M533.71,147.54h56.41c31.69,0,57.39,25.69,57.39,57.39v302.36c0,31.69-25.69,57.39-57.39,57.39H103.67   c-31.69,0-57.39-25.69-57.39-57.39V204.93c0-31.69,25.69-57.39,57.39-57.39h63.91"></path>
	<line class="st0" x1="199.41" y1="380.71" x2="92.83" y2="466.49"></line>
	<line class="st0" x1="494.39" y1="380.71" x2="600.96" y2="466.49"></line>
	<polyline class="st0" points="272.53,144.12 349.84,221.43 501.98,69.28  "></polyline>
	<path class="st0" d="M436.11,69.27c-23.16-19.3-52.96-30.91-85.47-30.91c-73.78,0-133.59,59.81-133.59,133.59   s59.81,133.59,133.59,133.59s133.59-59.81,133.59-133.59c0-7.01-0.54-13.9-1.58-20.62"></path>
</g>
</svg>