<svg width="100" height="100" version="1.1" id="Layer_1" x="0px" y="0px" class="sv svg-4 " viewBox="0 0 693.79 603.03" style="enable-background:new 0 0 693.79 603.03; fill:#006ee3;" xml:space="preserve" xmlns="http://www.w3.org/2000/svg" xmlns:xlink="http://www.w3.org/1999/xlink">

<path d="M 185.94 438.4 v 142.54 h 227.51 v -57.58 l 94.4 -5.66 c 0 0 0.94 0 1.89 0 c 15.1 -0.94 26.43 -14.16 25.49 -30.21 l -10.38 -99.12 l 79.3 -11.33 L 547.5 248.65 c 0 -139.71 -87.79 -226.56 -228.45 -226.56 c -126.5 0 -229.39 102.9 -229.39 229.39 C 89.66 327.01 127.42 399.69 185.94 438.4 Z M 108.54 251.48 c 0 -110.45 84.96 -201.07 193.52 -209.57 c -24.54 51.92 -38.7 107.62 -44.37 165.2 c -2.83 0 -5.66 0 -8.5 0 c -40.59 0 -73.63 33.04 -73.63 73.63 s 33.04 73.63 73.63 73.63 c 13.22 0 26.43 -3.78 36.82 -10.38 c 25.49 38.7 47.2 55.7 85.9 72.69 c 0 16.99 13.22 30.21 30.21 30.21 c 16.99 0 30.21 -13.22 30.21 -30.21 c 0 -16.99 -13.22 -30.21 -30.21 -30.21 c -11.33 0 -21.71 6.61 -26.43 16.05 c -35.87 -16.05 -54.75 -31.15 -78.35 -67.02 c 15.1 -13.22 25.49 -33.04 25.49 -55.7 c 0 -33.04 -21.71 -60.42 -50.98 -70.8 c 4.72 -59.47 20.77 -116.11 45.31 -168.98 h 0.94 c 132.16 0.94 210.51 79.3 210.51 211.46 v 1.89 l 48.14 109.5 l -72.69 10.38 l 13.22 117.06 c 0 4.72 -3.78 8.5 -8.5 9.44 h -0.94 l -112.34 6.61 v 56.64 H 204.82 V 428.96 l -4.72 -2.83 C 144.41 391.2 108.54 322.29 108.54 251.48 Z M 303.94 280.75 c 0 30.21 -24.54 54.75 -54.75 54.75 s -54.75 -24.54 -54.75 -54.75 c 0 -30.21 24.54 -54.75 54.75 -54.75 S 303.94 250.54 303.94 280.75 Z"></path>
</svg> 	