<svg width="100" height="100" class="sv svg-4" version="1.1" id="Layer_1" x="0px" y="0px" viewBox="0 0 693.79 603.03" style="enable-background:new 0 0 693.79 603.03; fill:#006ee3;" xml:space="preserve" xmlns="http://www.w3.org/2000/svg" xmlns:xlink="http://www.w3.org/1999/xlink">
<path d="M59.81,254.05v169.58c0,5.02,4.07,9.08,9.08,9.08l0,0h22.25C138.76,525.95,235.76,590,347.5,590  c5.02-0.01,9.08-4.08,9.08-9.09v-69.6c-0.01-5.02-4.07-9.07-9.08-9.08c-58.13-0.02-113.36-25.41-151.22-69.51h276.89l-39.21,117.6  c-1.58,4.76,0.98,9.91,5.74,11.49c0.93,0.31,1.9,0.46,2.87,0.46c0.98-0.01,1.95-0.16,2.88-0.45l147.74-49.23  c4.76-1.58,7.33-6.73,5.74-11.49c-0.82-2.47-2.66-4.47-5.05-5.48l-24.57-10.56c13.26-16.17,24.72-33.72,34.18-52.37h22.59  c5.02,0,9.08-4.07,9.09-9.08V181.36c-0.01-5.02-4.08-9.08-9.09-9.08h-22.25C556.24,79.04,459.24,15,347.5,15  c-5.02,0-9.08,4.07-9.09,9.08v69.6c0.01,5.02,4.08,9.08,9.09,9.08c58.13,0.02,113.35,25.41,151.21,69.51H221.82l39.19-117.59  c1.56-4.77-1.05-9.91-5.82-11.47c-1.84-0.6-3.81-0.6-5.65,0L101.79,92.43c-4.76,1.58-7.33,6.73-5.74,11.49  c0.82,2.47,2.66,4.47,5.05,5.48l24.51,10.56c-13.26,16.17-24.71,33.73-34.16,52.38H68.89c-5.02,0-9.08,4.07-9.08,9.08l0,0V254.05z   M77.97,190.45h53.86c-3.73,25.23-22.16,45.79-46.83,52.24c-2.31,0.67-4.66,1.21-7.03,1.62V190.45z M147.35,122.52  c3.36-3.74,3.05-9.49-0.69-12.85c-0.74-0.67-1.57-1.2-2.48-1.59l-13.96-5.97L238.04,66.2l-35.38,106.1h-1.27l-3.91-9.11  c-1.99-4.61-7.33-6.75-11.94-4.76c-1.27,0.55-2.4,1.37-3.29,2.42c-3.17,3.7-6.09,7.58-9,11.46h-61.15  C121.93,154.42,133.75,137.72,147.35,122.52L147.35,122.52z M356.58,33.32c97.52,3.25,181.94,58.61,226.57,138.96h-61.19  c-38.12-50.84-97.74-84.71-165.38-87.48V33.32z M617.02,414.56h-53.86c3.73-25.22,22.16-45.79,46.81-52.25  c2.31-0.67,4.67-1.2,7.04-1.61V414.56z M547.58,482.47c-3.36,3.73-3.07,9.46,0.65,12.83c0.74,0.68,1.59,1.21,2.51,1.61l14.01,6  l-107.81,35.91l35.39-106.11h1.27l3.96,9.25c1.99,4.61,7.33,6.75,11.94,4.76c1.27-0.55,2.4-1.37,3.29-2.42  c3.17-3.74,6.17-7.67,9.1-11.62h60.97c-9.84,17.87-21.69,34.58-35.29,49.78L547.58,482.47L547.58,482.47z M617.02,190.46v53.86  c-27.54-4.74-49.12-26.32-53.86-53.86H617.02z M523.62,190.46h21.25c4.18,36.65,32.35,65.97,68.79,71.62  c1.12,0.18,2.23,0.39,3.36,0.52v79.82c-1.12,0.12-2.23,0.33-3.33,0.5c-36.47,5.65-64.64,34.99-68.82,71.64H413.51  c36.89-21.74,60.72-60.25,63.73-102.97h15.61c5.02-0.17,8.94-4.38,8.78-9.4c-0.16-4.77-4-8.62-8.78-8.78h-15.61  c-3.01-42.72-26.84-81.21-63.73-102.95H523.62L523.62,190.46z M459.55,302.5c0,61.88-50.16,112.05-112.05,112.05  S235.45,364.38,235.45,302.5s50.16-112.05,112.05-112.05C409.35,190.53,459.47,240.65,459.55,302.5z M217.71,293.41h-15.58  c-5.02,0.17-8.94,4.38-8.78,9.4c0.16,4.77,4,8.62,8.78,8.78h15.58c3.02,42.72,26.84,81.21,63.73,102.97H150.12  c-4.17-36.65-32.33-65.98-68.77-71.64c-1.12-0.17-2.22-0.38-3.36-0.5v-79.82c1.13-0.13,2.22-0.34,3.33-0.51  c36.45-5.65,64.63-34.98,68.8-71.63h131.35C244.58,212.2,220.73,250.69,217.71,293.41z M338.38,571.68  c-97.43-3.24-181.92-58.62-226.53-138.97h61.25c38.06,50.88,97.68,84.67,165.31,87.49L338.38,571.68z M77.97,414.55v-53.86  c2.34,0.39,4.67,0.92,6.95,1.58c24.71,6.43,43.18,27.01,46.91,52.27H77.97z"></path>
<path d="M341.44,311.58h12.11c5.02-0.17,8.94-4.38,8.78-9.4c-0.16-4.77-4-8.62-8.78-8.78h-12.11c-5.02,0.17-8.94,4.38-8.78,9.4  C332.83,307.59,336.66,311.42,341.44,311.58z"></path>
<path d="M353.3,293.41h-12.11c-2.13,0.04-4.18,0.83-5.79,2.23c-3.78,3.32-4.16,9.06-0.84,12.84c1.68,1.91,4.09,3.04,6.63,3.1h12.11  c5.02,0.17,9.23-3.76,9.4-8.78c0.17-5.02-3.76-9.23-8.78-9.4C353.71,293.41,353.51,293.41,353.3,293.41z"></path>
<path d="M338.4,229.84v7.03c-20.7,3.51-36.34,18.73-36.34,36.96c0,20.53,22.36,29.34,42.09,37.12  c14.33,5.67,30.63,12.08,30.63,20.23c0,10.62-12.48,19.59-27.26,19.59s-27.26-8.97-27.26-19.59c-0.17-5.02-4.38-8.94-9.4-8.78  c-4.77,0.16-8.62,4-8.78,8.78c0,18.24,15.64,33.5,36.34,36.96v7c0.17,5.02,4.38,8.94,9.4,8.78c4.77-0.16,8.62-4,8.78-8.78v-7  c20.7-3.51,36.34-18.77,36.34-36.96c0-20.51-22.36-29.34-42.08-37.12c-14.34-5.67-30.63-12.08-30.63-20.23  c0-10.56,12.48-19.57,27.26-19.57c14.77,0,27.26,8.98,27.26,19.57c0,5.02,4.07,9.08,9.08,9.08c5.02,0,9.08-4.07,9.08-9.08  c0-18.24-15.64-33.47-36.34-36.96v-7.03c-0.17-5.02-4.38-8.94-9.4-8.78C342.4,221.23,338.56,225.07,338.4,229.84z"></path>
</svg>